HIERARCHY
ROOT Hips
{
  OFFSET 5.84602e-005 68.8428 3.50346
  CHANNELS 6 Xposition Yposition Zposition Zrotation Xrotation Yrotation
  JOINT Spine
  {
    OFFSET 0 8.597 -4.6522
    CHANNELS 3 Zrotation Xrotation Yrotation
    JOINT Spine1
    {
      OFFSET 0 7.8454 0.4098
      CHANNELS 3 Zrotation Xrotation Yrotation
      JOINT Spine2
      {
        OFFSET 0 9.7078 -2.1609
        CHANNELS 3 Zrotation Xrotation Yrotation
        JOINT Neck
        {
          OFFSET 0 21.8761 -0.4549
          CHANNELS 3 Zrotation Xrotation Yrotation
          JOINT Head
          {
            OFFSET 0 12.3537 3.3602
            CHANNELS 3 Zrotation Xrotation Yrotation
            End Site
            {
              OFFSET 0.0001 18.9506 0.5657
            }
          }
        }
        JOINT LeftShoulder
        {
          OFFSET 2.2086 21.1115 7.2329
          CHANNELS 3 Zrotation Xrotation Yrotation
          JOINT LeftArm
          {
            OFFSET 13.1193 3.0282 -4.8998
            CHANNELS 3 Zrotation Xrotation Yrotation
            JOINT LeftForeArm
            {
              OFFSET 27.4081 -0.0973053 -0.2375
              CHANNELS 3 Zrotation Xrotation Yrotation
              JOINT LeftHand
              {
                OFFSET 22.8641 0.0662994 -0.1369
                CHANNELS 3 Zrotation Xrotation Yrotation
                JOINT LeftHandIndex1
                {
                  OFFSET 8.8614 0.775009 2.4612
                  CHANNELS 3 Zrotation Xrotation Yrotation
                  JOINT LeftHandIndex2
                  {
                    OFFSET 3.3146 -0.808304 0.5841
                    CHANNELS 3 Zrotation Xrotation Yrotation
                    JOINT LeftHandIndex3
                    {
                      OFFSET 2.2628 -0.552002 0.3989
                      CHANNELS 3 Zrotation Xrotation Yrotation
                      End Site
                      {
                        OFFSET 1.6102 -0.4807 0.2612
                      }
                    }
                  }
                }
                JOINT LeftHandMiddle1
                {
                  OFFSET 8.9937 0.895004 0.2143
                  CHANNELS 3 Zrotation Xrotation Yrotation
                  JOINT LeftHandMiddle2
                  {
                    OFFSET 4.0984 0.0113983 -0.0242
                    CHANNELS 3 Zrotation Xrotation Yrotation
                    JOINT LeftHandMiddle3
                    {
                      OFFSET 2.2716 0.00689697 -0.0138001
                      CHANNELS 3 Zrotation Xrotation Yrotation
                      End Site
                      {
                        OFFSET 2.0404 -0.1441 0.0027
                      }
                    }
                  }
                }
                JOINT LeftHandRing1
                {
                  OFFSET 8.5234 0.597198 -2.0164
                  CHANNELS 3 Zrotation Xrotation Yrotation
                  JOINT LeftHandRing2
                  {
                    OFFSET 3.7188 -0.188293 -0.2328
                    CHANNELS 3 Zrotation Xrotation Yrotation
                    JOINT LeftHandRing3
                    {
                      OFFSET 2.1191 -0.106598 -0.1332
                      CHANNELS 3 Zrotation Xrotation Yrotation
                      End Site
                      {
                        OFFSET 1.8737 -0.2304 -0.0886
                      }
                    }
                  }
                }
                JOINT LeftHandPinky1
                {
                  OFFSET 7.9094 -0.601089 -3.4825
                  CHANNELS 3 Zrotation Xrotation Yrotation
                  JOINT LeftHandPinky2
                  {
                    OFFSET 2.2874 -0.477005 -0.6314
                    CHANNELS 3 Zrotation Xrotation Yrotation
                    JOINT LeftHandPinky3
                    {
                      OFFSET 1.6774 -0.349396 -0.4633
                      CHANNELS 3 Zrotation Xrotation Yrotation
                      End Site
                      {
                        OFFSET 1.4888 -0.4091 -0.3416
                      }
                    }
                  }
                }
                JOINT LeftHandThumb1
                {
                  OFFSET 1.833 -1.3875 1.3896
                  CHANNELS 3 Zrotation Xrotation Yrotation
                  JOINT LeftHandThumb2
                  {
                    OFFSET 3.4129 -1.121 2.5732
                    CHANNELS 3 Zrotation Xrotation Yrotation
                    JOINT LeftHandThumb3
                    {
                      OFFSET 2.2474 -0.804199 1.6192
                      CHANNELS 3 Zrotation Xrotation Yrotation
                      End Site
                      {
                        OFFSET 1.6527 -0.5689 1.1317
                      }
                    }
                  }
                }
              }
            }
          }
        }
        JOINT RightShoulder
        {
          OFFSET -2.2086 21.1115 7.2329
          CHANNELS 3 Zrotation Xrotation Yrotation
          JOINT RightArm
          {
            OFFSET -13.1216 3.0287 -4.9007
            CHANNELS 3 Zrotation Xrotation Yrotation
            JOINT RightForeArm
            {
              OFFSET -27.4081 -0.0973053 -0.2375
              CHANNELS 3 Zrotation Xrotation Yrotation
              JOINT RightHand
              {
                OFFSET -22.8641 0.0664063 -0.1369
                CHANNELS 3 Zrotation Xrotation Yrotation
                JOINT RightHandIndex1
                {
                  OFFSET -8.8614 0.774994 2.4612
                  CHANNELS 3 Zrotation Xrotation Yrotation
                  JOINT RightHandIndex2
                  {
                    OFFSET -3.3146 -0.808304 0.5841
                    CHANNELS 3 Zrotation Xrotation Yrotation
                    JOINT RightHandIndex3
                    {
                      OFFSET -2.2628 -0.552002 0.3989
                      CHANNELS 3 Zrotation Xrotation Yrotation
                      End Site
                      {
                        OFFSET -1.6102 -0.4807 0.2612
                      }
                    }
                  }
                }
                JOINT RightHandMiddle1
                {
                  OFFSET -8.9937 0.894989 0.2143
                  CHANNELS 3 Zrotation Xrotation Yrotation
                  JOINT RightHandMiddle2
                  {
                    OFFSET -4.0984 0.0113983 -0.0242
                    CHANNELS 3 Zrotation Xrotation Yrotation
                    JOINT RightHandMiddle3
                    {
                      OFFSET -2.2716 0.00691223 -0.0138001
                      CHANNELS 3 Zrotation Xrotation Yrotation
                      End Site
                      {
                        OFFSET -2.0404 -0.1441 0.0027
                      }
                    }
                  }
                }
                JOINT RightHandRing1
                {
                  OFFSET -8.5234 0.597198 -2.0164
                  CHANNELS 3 Zrotation Xrotation Yrotation
                  JOINT RightHandRing2
                  {
                    OFFSET -3.7188 -0.188309 -0.2328
                    CHANNELS 3 Zrotation Xrotation Yrotation
                    JOINT RightHandRing3
                    {
                      OFFSET -2.1191 -0.106598 -0.1332
                      CHANNELS 3 Zrotation Xrotation Yrotation
                      End Site
                      {
                        OFFSET -1.8737 -0.2304 -0.0886
                      }
                    }
                  }
                }
                JOINT RightHandPinky1
                {
                  OFFSET -7.9094 -0.601105 -3.4825
                  CHANNELS 3 Zrotation Xrotation Yrotation
                  JOINT RightHandPinky2
                  {
                    OFFSET -2.2874 -0.477005 -0.6314
                    CHANNELS 3 Zrotation Xrotation Yrotation
                    JOINT RightHandPinky3
                    {
                      OFFSET -1.6774 -0.349396 -0.4633
                      CHANNELS 3 Zrotation Xrotation Yrotation
                      End Site
                      {
                        OFFSET -1.4888 -0.4091 -0.3416
                      }
                    }
                  }
                }
                JOINT RightHandThumb1
                {
                  OFFSET -1.833 -1.38751 1.3896
                  CHANNELS 3 Zrotation Xrotation Yrotation
                  JOINT RightHandThumb2
                  {
                    OFFSET -3.41299 -1.12099 2.5732
                    CHANNELS 3 Zrotation Xrotation Yrotation
                    JOINT RightHandThumb3
                    {
                      OFFSET -2.24741 -0.804108 1.6192
                      CHANNELS 3 Zrotation Xrotation Yrotation
                      End Site
                      {
                        OFFSET -1.6527 -0.5689 1.1317
                      }
                    }
                  }
                }
              }
            }
          }
        }
      }
    }
  }
  JOINT RightUpLeg
  {
    OFFSET -9.1966 3.8861 -0.7581
    CHANNELS 3 Zrotation Xrotation Yrotation
    JOINT RightLeg
    {
      OFFSET -0.7359 -41.0265 0
      CHANNELS 3 Zrotation Xrotation Yrotation
      JOINT RightFoot
      {
        OFFSET 0 -40.2855 0
        CHANNELS 3 Zrotation Xrotation Yrotation
        JOINT RightToeBase
        {
          OFFSET 0 -5.6122 11.7359
          CHANNELS 3 Zrotation Xrotation Yrotation
          End Site
          {
            OFFSET 0 0 7.8731
          }
        }
      }
    }
  }
  JOINT LeftUpLeg
  {
    OFFSET 9.1965 3.8864 -0.7581
    CHANNELS 3 Zrotation Xrotation Yrotation
    JOINT LeftLeg
    {
      OFFSET 0.7359 -41.0268 0
      CHANNELS 3 Zrotation Xrotation Yrotation
      JOINT LeftFoot
      {
        OFFSET 0 -40.2855 0
        CHANNELS 3 Zrotation Xrotation Yrotation
        JOINT LeftToeBase
        {
          OFFSET 0 -5.6122 11.7359
          CHANNELS 3 Zrotation Xrotation Yrotation
          End Site
          {
            OFFSET 0 0 7.8731
          }
        }
      }
    }
  }
}
MOTION
Frames:	6
Frame Time:	0.0333333
5.84602e-005 68.8428 3.50346 0 0 -0 0 0 -0 0 0 -0 0 0 -0 0 0 -0 0 0 -0 0 0 -0 0 0 -0 0 0 -0 0 0 -0 0 0 -0 0 0 -0 0 0 -0 0 0 -0 -0.0146107 -8.87603e-005 -2.63497e-007 2.99804e-018 -2.42657e-020 -1.42182e-022 0 0 -0 -0.0187562 -0.001176 5.858e-005 5.06224e-018 3.88251e-019 1.21329e-020 0 0 -0 -0.012269 -0.00324817 0.000675346 -1.74678e-018 3.88251e-019 -0 0 0 -0 0 0 -0 0 0 -0 0 0 -0 0 0 -0 0 0 -0 0 0 -0 0 0 -0 0 0 -0 0 0 -0 0 0 -0 0.0149955 -9.10982e-005 2.64101e-007 -9.69331e-018 1.21329e-020 -4.7394e-023 0 0 -0 0.0189956 -0.00119102 -5.96516e-005 -5.41541e-019 0 2.42657e-020 0 0 -0 0.0122698 -0.00324857 -0.000673756 -2.00796e-019 0 -1.94126e-019 0 0 -0 0 0 -0 0 0 -0 3.39842 1.33031 -0.0637918 -5.65207e-008 0.834868 -0.000436188 -3.39935 -2.16518 -0.0642563 -8.89002e-024 -1.18485e-023 -1.48106e-024 -3.39844 1.35642 0.0640283 -3.18788e-007 0.782166 -0.000588827 3.39931 -2.13858 0.0634662 1.1399e-023 0 -0 
-4.09219 -4.44044 30.024 1.44219 33.9898 179.559 -0.0383161 10.7325 -0.410734 0.00342132 21.4649 -0.836691 0.00342132 21.4649 -0.836691 5.27782 -5.64369 0.30765 9.43691 -14.7062 1.60435 -21.7262 -0.811939 4.3126 -36.2272 2.31858 -16.8893 -43.2137 20.3625 -10.4841 -11.492 -60.3417 -11.7196 -1.03424e-006 1.82064e-006 -3.16743e-006 -6.66606e-007 2.72349e-006 -1.80569e-006 -7.35265e-007 -1.80569e-006 -2.72349e-006 -1.03424e-006 1.82064e-006 -3.16743e-006 -0.014588 -9.18658e-005 -3.21375e-006 -7.35183e-007 -1.80534e-006 -2.72371e-006 -1.03424e-006 1.82064e-006 -3.16743e-006 -0.0187826 -0.00117989 5.99098e-005 -7.35185e-007 -1.80524e-006 -2.72377e-006 -1.03424e-006 1.82064e-006 -3.16743e-006 -0.0122388 -0.00323985 0.00066962 -7.35282e-007 -1.80538e-006 -2.72366e-006 -1.03424e-006 1.82064e-006 -3.16743e-006 -6.66606e-007 2.72349e-006 -1.80569e-006 -7.35265e-007 -1.80569e-006 -2.72349e-006 29.2568 -4.9136 14.0991 15.0836 -1.67862 2.36563 6.02354 -11.2503 49.7098 9.7249 18.64 14.1565 0 7.95139e-016 -0 9.51279e-007 1.25993e-006 -6.37176e-007 -1.32417e-031 7.95139e-016 9.54166e-015 0 7.95139e-016 -0 0.0149941 -9.40576e-005 -3.02845e-006 8.82781e-031 -7.95139e-015 6.36111e-015 0 7.95139e-016 -0 0.0190161 -0.00119403 -6.33439e-005 -9.2692e-031 5.56597e-015 9.54166e-015 0 7.95139e-016 -0 0.0123107 -0.00325952 -0.000677124 -6.36111e-015 -1.27222e-014 6.36111e-015 0 7.95139e-016 -0 9.51279e-007 1.25993e-006 -6.37176e-007 -1.32417e-031 7.95139e-016 9.54166e-015 -117.439 -47.9465 -117.476 159.36 56.5594 -166.752 -0.496189 7.37128 5.54329 4.77083e-015 -3.18055e-015 -3.18055e-015 108.468 -50.6501 124.23 -140.492 58.6853 154.352 -8.98836 37.8448 -11.3657 9.47532e-006 -7.25608e-007 1.55151e-006 
-4.09222 -4.44103 30.0244 1.44185 33.9842 179.559 -0.0383142 10.7325 -0.410734 0.00342107 21.4649 -0.836691 0.0034221 21.4649 -0.836692 5.47021 -5.49661 0.404931 9.46495 -14.7658 1.66178 -21.7262 -0.811951 4.31259 -36.2272 2.31857 -16.8893 -43.2137 20.3625 -10.4841 -11.492 -60.3417 -11.7197 7.00962e-007 -4.5886e-007 2.26459e-006 -7.52674e-008 -2.6938e-007 6.16847e-006 -1.13448e-006 -3.26271e-006 2.40234e-006 7.00962e-007 -4.5886e-007 2.26459e-006 -0.0145912 -8.67087e-005 2.23345e-007 6.66618e-007 -2.72367e-006 1.80538e-006 7.00962e-007 -4.5886e-007 2.26459e-006 -0.0187498 -0.00117596 6.4898e-005 6.66661e-007 -2.72373e-006 1.80527e-006 7.00962e-007 -4.5886e-007 2.26459e-006 -0.0122521 -0.00324604 0.000677829 6.66637e-007 -2.72362e-006 1.80541e-006 7.00962e-007 -4.5886e-007 2.26459e-006 -7.52674e-008 -2.6938e-007 6.16847e-006 -1.13448e-006 -3.26271e-006 2.40234e-006 29.2568 -4.91361 14.0992 15.075 -1.67115 2.01956 6.02353 -11.2503 49.7097 9.72489 18.64 14.1565 4.73679e-007 6.31272e-007 -3.19119e-007 9.47359e-007 1.26254e-006 -6.38238e-007 -6.36111e-015 -1.66979e-014 -0 4.73679e-007 6.31272e-007 -3.19119e-007 0.0149798 -9.15966e-005 2.28336e-006 -2.20695e-031 -3.97569e-015 -3.18055e-015 4.73679e-007 6.31272e-007 -3.19119e-007 0.0190037 -0.0011883 -6.16807e-005 -3.53113e-031 -6.36111e-015 -3.18055e-015 4.73679e-007 6.31272e-007 -3.19119e-007 0.0122744 -0.00324667 -0.000674404 3.18055e-015 -7.95139e-015 9.54166e-015 4.73679e-007 6.31272e-007 -3.19119e-007 9.47359e-007 1.26254e-006 -6.38238e-007 -6.36111e-015 -1.66979e-014 -0 -117.439 -47.9464 -117.476 159.36 56.5595 -166.753 -0.496262 7.37138 5.54329 -2.67407e-007 -4.55655e-007 -1.57916e-006 108.468 -50.6502 124.229 -140.491 58.6855 154.351 -8.98835 37.8449 -11.3657 1.95512e-006 1.86896e-007 8.54473e-008 
-4.09222 -4.44103 30.0244 1.44185 33.9842 179.559 -0.0383142 10.7325 -0.410734 0.00342107 21.4649 -0.836691 0.00342179 21.4649 -0.836691 5.66234 -5.34924 0.501745 9.49306 -14.8254 1.71926 -21.7262 -0.81195 4.31259 -36.2272 2.31857 -16.8893 -43.2137 20.3625 -10.4842 -11.492 -60.3417 -11.7196 -2.78299e-015 6.36111e-015 2.38542e-015 -1.10004e-006 -9.98121e-007 2.8612e-006 -1.84489e-006 -2.54524e-007 2.77574e-007 -2.78299e-015 6.36111e-015 2.38542e-015 -0.0146064 -8.74451e-005 2.23376e-006 -6.75868e-015 -6.36111e-015 -3.97569e-015 -2.78299e-015 6.36111e-015 2.38542e-015 -0.0187925 -0.00118089 6.03836e-005 3.97569e-016 -6.36111e-015 -7.95139e-016 -2.78299e-015 6.36111e-015 2.38542e-015 -0.0122365 -0.00323987 0.0006781 9.14409e-015 -6.36111e-015 -3.97569e-015 -2.78299e-015 6.36111e-015 2.38542e-015 -1.10004e-006 -9.98121e-007 2.8612e-006 -1.84489e-006 -2.54524e-007 2.77574e-007 29.2568 -4.91361 14.0992 15.0665 -1.66363 1.67323 6.02354 -11.2503 49.7098 9.72488 18.64 14.1565 9.43457e-007 1.26515e-006 -6.39247e-007 1.41519e-006 1.89772e-006 -9.5887e-007 6.36111e-015 1.66979e-014 -3.18055e-015 9.43457e-007 1.26515e-006 -6.39247e-007 0.0150243 -8.59784e-005 1.71245e-006 0 4.77083e-015 -0 9.43457e-007 1.26515e-006 -6.39247e-007 0.0190099 -0.00118786 -5.7215e-005 1.17696e-008 5.49699e-007 1.35036e-006 9.43457e-007 1.26515e-006 -6.39247e-007 0.0122791 -0.00324541 -0.000672567 -1.23887e-008 -5.49802e-007 -1.35045e-006 9.43457e-007 1.26515e-006 -6.39247e-007 1.41519e-006 1.89772e-006 -9.5887e-007 6.36111e-015 1.66979e-014 -3.18055e-015 -117.439 -47.9465 -117.476 159.36 56.5595 -166.752 -0.496237 7.37138 5.54329 4.77083e-015 -3.18055e-015 -3.18055e-015 108.468 -50.6502 124.229 -140.491 58.6856 154.351 -8.98837 37.8449 -11.3657 -7.65521e-010 -2.89681e-007 8.2996e-007 
-4.09222 -4.44103 30.0244 1.44186 33.9843 179.559 -0.0383159 10.7325 -0.410734 0.00342117 21.4649 -0.83669 0.00342206 21.4649 -0.836692 5.85427 -5.20151 0.598072 9.52124 -14.885 1.77679 -21.7262 -0.811952 4.31259 -36.2272 2.31857 -16.8893 -43.2137 20.3625 -10.4841 -11.4919 -60.3417 -11.7196 1.06866e-006 4.44004e-007 3.62631e-006 1.36748e-006 -3.18231e-006 4.07031e-006 -3.44385e-008 -2.26459e-006 -4.58859e-007 1.06866e-006 4.44004e-007 3.62631e-006 -0.0145544 -8.85418e-005 3.92498e-006 -3.43498e-008 -2.26453e-006 -4.59147e-007 1.06866e-006 4.44004e-007 3.62631e-006 -0.018795 -0.00117898 6.53384e-005 -3.43294e-008 -2.2645e-006 -4.59231e-007 1.06866e-006 4.44004e-007 3.62631e-006 -0.012231 -0.00323854 0.000676626 -3.43899e-008 -2.26452e-006 -4.59104e-007 1.06866e-006 4.44004e-007 3.62631e-006 1.36748e-006 -3.18231e-006 4.07031e-006 -3.44385e-008 -2.26459e-006 -4.58859e-007 29.2568 -4.91361 14.0992 15.058 -1.65605 1.32664 6.02354 -11.2503 49.7098 9.72489 18.64 14.1565 -4.69772e-007 -6.33869e-007 3.20126e-007 -0 -4.77083e-015 -0 -9.39543e-007 -1.26774e-006 6.40251e-007 -4.69772e-007 -6.33869e-007 3.20126e-007 0.015004 -9.54328e-005 1.6858e-006 -9.39559e-007 -1.26765e-006 6.40418e-007 -4.69772e-007 -6.33869e-007 3.20126e-007 0.0190186 -0.00118583 -5.9724e-005 -9.39557e-007 -1.26763e-006 6.40471e-007 -4.69772e-007 -6.33869e-007 3.20126e-007 0.0122381 -0.00324148 -0.000672229 -9.39531e-007 -1.26767e-006 6.40414e-007 -4.69772e-007 -6.33869e-007 3.20126e-007 -0 -4.77083e-015 -0 -9.39543e-007 -1.26774e-006 6.40251e-007 -117.439 -47.9465 -117.476 159.36 56.5595 -166.752 -0.496245 7.37136 5.54331 1.08977e-007 -1.31598e-006 -2.94437e-006 108.468 -50.6502 124.229 -140.491 58.6855 154.351 -8.98837 37.8449 -11.3657 1.40149e-008 -5.57048e-007 6.54488e-007 
-4.09222 -4.44103 30.0244 1.44185 33.9842 179.559 -0.0383142 10.7325 -0.410734 0.00342107 21.4649 -0.836691 0.0034219 21.4649 -0.836691 6.04601 -5.05322 0.693929 9.54949 -14.9446 1.83437 -21.7262 -0.81196 4.31259 -36.2272 2.31856 -16.8893 -43.2137 20.3625 -10.4841 -11.492 -60.3417 -11.7196 7.00961e-007 -4.5886e-007 2.26459e-006 -3.44381e-008 -2.26459e-006 -4.5886e-007 7.00961e-007 -4.5886e-007 2.26459e-006 7.00961e-007 -4.5886e-007 2.26459e-006 -0.014596 -9.07665e-005 3.49471e-006 7.00967e-007 -4.59148e-007 2.26453e-006 7.00961e-007 -4.5886e-007 2.26459e-006 -0.0187914 -0.00118271 6.35441e-005 7.0099e-007 -4.59231e-007 2.2645e-006 7.00961e-007 -4.5886e-007 2.26459e-006 -0.0122317 -0.00323808 0.00067436 7.01026e-007 -4.59104e-007 2.26452e-006 7.00961e-007 -4.5886e-007 2.26459e-006 -3.44381e-008 -2.26459e-006 -4.5886e-007 7.00961e-007 -4.5886e-007 2.26459e-006 29.2568 -4.91362 14.0992 15.0496 -1.64842 0.97981 6.02353 -11.2503 49.7098 9.72489 18.64 14.1565 2.54512e-006 -1.31599e-006 1.16279e-006 1.76556e-031 -3.18055e-015 3.18055e-015 -2.54512e-006 1.31599e-006 -1.16279e-006 2.54512e-006 -1.31599e-006 1.16279e-006 0.0150399 -9.21315e-005 1.22459e-007 -2.54362e-006 1.31582e-006 -1.16296e-006 2.54512e-006 -1.31599e-006 1.16279e-006 0.01903 -0.00119743 -6.2183e-005 6.36111e-015 -1.74931e-014 6.36111e-015 2.54512e-006 -1.31599e-006 1.16279e-006 0.0122135 -0.0032351 -0.000671667 -3.18055e-015 -1.59028e-015 3.18055e-015 2.54512e-006 -1.31599e-006 1.16279e-006 1.76556e-031 -3.18055e-015 3.18055e-015 -2.54512e-006 1.31599e-006 -1.16279e-006 -117.439 -47.9465 -117.476 159.36 56.5595 -166.752 -0.496225 7.37138 5.5433 7.95139e-015 9.54166e-015 6.36111e-015 108.468 -50.6502 124.229 -140.491 58.6855 154.351 -8.98836 37.8449 -11.3657 -1.97483e-006 1.69594e-007 1.48516e-007 
